<svg width="36" height="39" viewBox="0 0 36 39" fill="none" xmlns="http://www.w3.org/2000/svg">
<g filter="url(#filter0_d_1_30)">
<path d="M15.822 2.41301L23.349 9.94901L23.429 9.86901C23.5867 9.71469 23.7978 9.6272 24.0184 9.62477C24.239 9.62235 24.452 9.70519 24.613 9.85601L24.619 9.86201L25.486 10.729C25.791 11.034 25.801 11.499 25.569 11.823L25.565 11.83L25.422 12.022L31.582 18.182C32.132 18.732 32.132 19.612 31.582 20.162L22.152 29.592C21.602 30.142 20.722 30.142 20.172 29.592L15.725 25.145C15.6512 25.2381 15.5584 25.3145 15.4529 25.3692C15.3474 25.4239 15.2316 25.4556 15.1129 25.4623C14.9943 25.469 14.8756 25.4505 14.7646 25.4081C14.6536 25.3656 14.5529 25.3002 14.469 25.216L11.869 22.616C11.7147 22.4584 11.6272 22.2472 11.6248 22.0266C11.6224 21.806 11.7052 21.593 11.856 21.432L11.862 21.425L11.939 21.349L4.41201 13.822C3.86201 13.272 3.86201 12.392 4.41201 11.842L13.842 2.41201C14.392 1.86201 15.272 1.86201 15.822 2.41201V2.41301ZM22.404 10.893L20.648 9.13801C20.5928 9.0811 20.5268 9.03585 20.4538 9.00495C20.3808 8.97405 20.3023 8.95813 20.223 8.95813C20.1437 8.95813 20.0653 8.97405 19.9923 9.00495C19.9193 9.03585 19.8532 9.0811 19.798 9.13801L16.218 12.718C16.1613 12.7743 16.1163 12.8413 16.0856 12.9151C16.0548 12.9889 16.039 13.0681 16.039 13.148C16.039 13.2279 16.0548 13.3071 16.0856 13.3809C16.1163 13.4547 16.1613 13.5217 16.218 13.578L17.967 15.327L18.577 14.717L17.012 13.152L20.222 9.93201L21.791 11.506L22.404 10.893ZM17.328 15.965L15.574 14.211C15.5188 14.1541 15.4528 14.1088 15.3798 14.0779C15.3068 14.047 15.2283 14.0311 15.149 14.0311C15.0697 14.0311 14.9913 14.047 14.9183 14.0779C14.8453 14.1088 14.7792 14.1541 14.724 14.211L11.144 17.791L11.139 17.796L11.134 17.801C10.894 18.031 10.894 18.411 11.134 18.651L12.886 20.403L13.502 19.787L11.932 18.223L15.152 15.013L16.716 16.576L17.328 15.965ZM10.822 8.19301L14.402 11.773C14.642 12.013 15.022 12.013 15.252 11.763L18.832 8.18301C18.8889 8.12884 18.9342 8.06368 18.9651 7.99148C18.9961 7.91929 19.012 7.84156 19.012 7.76301H19.022C19.022 7.61301 18.962 7.45301 18.842 7.33301L15.262 3.75301C15.2058 3.69617 15.1388 3.65105 15.065 3.62025C14.9912 3.58946 14.912 3.5736 14.832 3.5736C14.752 3.5736 14.6729 3.58946 14.599 3.62025C14.5252 3.65105 14.4583 3.69617 14.402 3.75301L10.822 7.34301C10.582 7.57301 10.582 7.95301 10.822 8.19301ZM5.75201 13.263L9.33201 16.843C9.57201 17.083 9.95201 17.083 10.182 16.843L13.762 13.263C13.8201 13.2077 13.8661 13.1409 13.8971 13.0669C13.9281 12.9929 13.9434 12.9132 13.942 12.833H13.952C13.952 12.673 13.892 12.523 13.772 12.403L10.192 8.82301C10.1368 8.7661 10.0708 8.72085 9.99776 8.68995C9.92476 8.65905 9.84629 8.64313 9.76701 8.64313C9.68774 8.64313 9.60927 8.65905 9.53626 8.68995C9.46326 8.72085 9.3972 8.7661 9.34201 8.82301L5.75201 12.413C5.51201 12.643 5.51201 13.023 5.75201 13.263ZM12.685 22.017L15.047 24.38L24.683 11.34L24.028 10.685L12.685 22.017Z" fill="black"/>
<path d="M15.822 2.41301L23.349 9.94901L23.429 9.86901C23.5867 9.71469 23.7978 9.6272 24.0184 9.62477C24.239 9.62235 24.452 9.70519 24.613 9.85601L24.619 9.86201L25.486 10.729C25.791 11.034 25.801 11.499 25.569 11.823L25.565 11.83L25.422 12.022L31.582 18.182C32.132 18.732 32.132 19.612 31.582 20.162L22.152 29.592C21.602 30.142 20.722 30.142 20.172 29.592L15.725 25.145C15.6512 25.2381 15.5584 25.3145 15.4529 25.3692C15.3474 25.4239 15.2316 25.4556 15.1129 25.4623C14.9943 25.469 14.8756 25.4505 14.7646 25.4081C14.6536 25.3656 14.5529 25.3002 14.469 25.216L11.869 22.616C11.7147 22.4584 11.6272 22.2472 11.6248 22.0266C11.6224 21.806 11.7052 21.593 11.856 21.432L11.862 21.425L11.939 21.349L4.41201 13.822C3.86201 13.272 3.86201 12.392 4.41201 11.842L13.842 2.41201C14.392 1.86201 15.272 1.86201 15.822 2.41201V2.41301ZM22.404 10.893L20.648 9.13801C20.5928 9.0811 20.5268 9.03585 20.4538 9.00495C20.3808 8.97405 20.3023 8.95813 20.223 8.95813C20.1437 8.95813 20.0653 8.97405 19.9923 9.00495C19.9193 9.03585 19.8532 9.0811 19.798 9.13801L16.218 12.718C16.1613 12.7743 16.1163 12.8413 16.0856 12.9151C16.0548 12.9889 16.039 13.0681 16.039 13.148C16.039 13.2279 16.0548 13.3071 16.0856 13.3809C16.1163 13.4547 16.1613 13.5217 16.218 13.578L17.967 15.327L18.577 14.717L17.012 13.152L20.222 9.93201L21.791 11.506L22.404 10.893ZM17.328 15.965L15.574 14.211C15.5188 14.1541 15.4528 14.1088 15.3798 14.0779C15.3068 14.047 15.2283 14.0311 15.149 14.0311C15.0697 14.0311 14.9913 14.047 14.9183 14.0779C14.8453 14.1088 14.7792 14.1541 14.724 14.211L11.144 17.791L11.139 17.796L11.134 17.801C10.894 18.031 10.894 18.411 11.134 18.651L12.886 20.403L13.502 19.787L11.932 18.223L15.152 15.013L16.716 16.576L17.328 15.965ZM10.822 8.19301L14.402 11.773C14.642 12.013 15.022 12.013 15.252 11.763L18.832 8.18301C18.8889 8.12884 18.9342 8.06368 18.9651 7.99148C18.9961 7.91929 19.012 7.84156 19.012 7.76301H19.022C19.022 7.61301 18.962 7.45301 18.842 7.33301L15.262 3.75301C15.2058 3.69617 15.1388 3.65105 15.065 3.62025C14.9912 3.58946 14.912 3.5736 14.832 3.5736C14.752 3.5736 14.6729 3.58946 14.599 3.62025C14.5252 3.65105 14.4583 3.69617 14.402 3.75301L10.822 7.34301C10.582 7.57301 10.582 7.95301 10.822 8.19301ZM5.75201 13.263L9.33201 16.843C9.57201 17.083 9.95201 17.083 10.182 16.843L13.762 13.263C13.8201 13.2077 13.8661 13.1409 13.8971 13.0669C13.9281 12.9929 13.9434 12.9132 13.942 12.833H13.952C13.952 12.673 13.892 12.523 13.772 12.403L10.192 8.82301C10.1368 8.7661 10.0708 8.72085 9.99776 8.68995C9.92476 8.65905 9.84629 8.64313 9.76701 8.64313C9.68774 8.64313 9.60927 8.65905 9.53626 8.68995C9.46326 8.72085 9.3972 8.7661 9.34201 8.82301L5.75201 12.413C5.51201 12.643 5.51201 13.023 5.75201 13.263ZM12.685 22.017L15.047 24.38L24.683 11.34L24.028 10.685L12.685 22.017Z" fill="#FD9222"/>
<path d="M23.7026 10.3026L23.7788 10.2263C23.7793 10.2258 23.7798 10.2253 23.7803 10.2249C23.7842 10.2211 23.7881 10.2174 23.7922 10.2139L23.6746 10.3313L21.8328 12.1713L22.1446 11.8596L22.7576 11.2466L23.1112 10.8929L22.7575 10.5394L21.0039 8.78674C20.9027 8.68326 20.7819 8.60091 20.6487 8.5445C20.514 8.4875 20.3692 8.45813 20.223 8.45813C20.0768 8.45813 19.932 8.4875 19.7974 8.5445C19.6641 8.60091 19.5433 8.68326 19.4422 8.78674L15.8657 12.3632C15.8655 12.3634 15.8653 12.3636 15.8651 12.3638C15.7619 12.4665 15.6799 12.5886 15.624 12.723C15.5679 12.8577 15.539 13.0021 15.539 13.148C15.539 13.2939 15.5679 13.4384 15.624 13.573C15.6364 13.6029 15.6501 13.6322 15.6651 13.6608C15.6357 13.645 15.6055 13.6305 15.5747 13.6175C15.44 13.5605 15.2952 13.5311 15.149 13.5311C15.0028 13.5311 14.858 13.5605 14.7234 13.6175C14.59 13.6739 14.4693 13.7563 14.3681 13.8598L10.7905 17.4374L10.7905 17.4375L10.7855 17.4424L10.7854 17.4425L10.7837 17.4442C10.3385 17.8755 10.3509 18.575 10.7805 19.0046L12.5325 20.7566L12.8857 21.1098L12.6462 21.3491L12.2926 20.9955L4.76557 13.4685C4.41083 13.1137 4.41083 12.5503 4.76557 12.1956L14.1956 2.76557C14.5418 2.41935 15.0868 2.41103 15.4425 2.74061L15.4682 2.76635L22.9953 10.3024L23.3488 10.6563L23.7026 10.3026ZM25.0851 11.6372L25.1494 11.5503L25.1476 11.5527L25.1459 11.5556L25.0763 11.6491L25.0851 11.6372ZM14.1902 24.2301L12.2263 22.2663C12.2258 22.2658 12.2253 22.2653 12.2249 22.2648C12.2213 22.261 12.2178 22.2573 12.2144 22.2534L12.3314 22.3705L14.1902 24.2301ZM12.2704 21.7244L12.2201 21.7747C12.2204 21.7744 12.2207 21.7741 12.2209 21.7738L12.2276 21.7667L12.2704 21.7244ZM15.3333 24.8342C15.3323 24.8356 15.3312 24.8369 15.3301 24.8382L15.4491 24.6772L24.7643 12.0714L25.0685 12.3756L31.2285 18.5356C31.5832 18.8903 31.5832 19.4537 31.2285 19.8085L21.7985 29.2385C21.4437 29.5932 20.8803 29.5932 20.5256 29.2385L16.0786 24.7915L15.682 24.3948L15.3333 24.8342ZM21.7905 12.2137L18.7382 15.2629L18.9306 15.0706L19.2841 14.717L18.9306 14.3635L17.7186 13.1515L20.222 10.6402L21.4369 11.859L21.7905 12.2137ZM13.8549 19.4328L12.6403 18.2229L15.1516 15.7195L16.3626 16.9297L16.7158 17.2827L17.0693 16.9299L17.6428 16.3572L13.581 20.4151L13.8556 20.1406L14.2098 19.7863L13.8549 19.4328ZM10.4714 6.98652C10.1153 7.33175 10.0522 7.84866 10.2615 8.26149C10.2389 8.25005 10.216 8.23937 10.1927 8.2295C10.058 8.1725 9.91325 8.14313 9.76701 8.14313C9.62078 8.14313 9.47604 8.1725 9.34137 8.2295C9.20807 8.28592 9.08733 8.36827 8.98616 8.47176L5.40167 12.0562C4.95648 12.4875 4.96887 13.187 5.39846 13.6166L8.97846 17.1966C9.40805 17.6262 10.1075 17.6385 10.5388 17.1934L14.1119 13.6202C14.1984 13.5368 14.2702 13.4397 14.3245 13.333H14.452V12.833C14.452 12.6574 14.4114 12.4872 14.3326 12.3329C14.7465 12.5429 15.2662 12.4783 15.6119 12.1103L19.1819 8.54022C19.2656 8.45946 19.3356 8.36582 19.3893 8.26301H19.522V7.76301C19.522 7.48503 19.4126 7.19645 19.1956 6.97946L15.6174 3.40129C15.617 3.40094 15.6167 3.4006 15.6164 3.40026C15.5138 3.29693 15.3919 3.21487 15.2575 3.15881C15.1227 3.10256 14.9781 3.0736 14.832 3.0736C14.6859 3.0736 14.5413 3.10256 14.4065 3.15881C14.2721 3.21491 14.15 3.29704 14.0474 3.40048C14.0472 3.40075 14.0469 3.40102 14.0466 3.40129L10.4714 6.98652Z" stroke="black"/>
</g>
<defs>
<filter id="filter0_d_1_30" x="-0.000488281" y="1.99951" width="35.995" height="36.005" filterUnits="userSpaceOnUse" color-interpolation-filters="sRGB">
<feFlood flood-opacity="0" result="BackgroundImageFix"/>
<feColorMatrix in="SourceAlpha" type="matrix" values="0 0 0 0 0 0 0 0 0 0 0 0 0 0 0 0 0 0 127 0" result="hardAlpha"/>
<feOffset dy="4"/>
<feGaussianBlur stdDeviation="2"/>
<feComposite in2="hardAlpha" operator="out"/>
<feColorMatrix type="matrix" values="0 0 0 0 0 0 0 0 0 0 0 0 0 0 0 0 0 0 0.25 0"/>
<feBlend mode="normal" in2="BackgroundImageFix" result="effect1_dropShadow_1_30"/>
<feBlend mode="normal" in="SourceGraphic" in2="effect1_dropShadow_1_30" result="shape"/>
</filter>
</defs>
</svg>
