<svg width="32" height="30" viewBox="0 0 32 30" fill="none" xmlns="http://www.w3.org/2000/svg">
<g filter="url(#filter0_d_359_3)">
<path d="M16 0.666626C8.66667 0.666626 2.66667 6.66663 2.66667 14C2.66667 21.3333 8.66667 27.3333 16 27.3333C23.3333 27.3333 29.3333 21.3333 29.3333 14C29.3333 6.66663 23.3333 0.666626 16 0.666626ZM16 24.6666C10.1333 24.6666 5.33334 19.8666 5.33334 14C5.33334 8.13329 10.1333 3.33329 16 3.33329C21.8667 3.33329 26.6667 8.13329 26.6667 14C26.6667 19.8666 21.8667 24.6666 16 24.6666Z" fill="#FD9222"/>
<path d="M17.7333 12.6667H14.2667C13.6 12.6667 13.0667 12.1333 13.0667 11.4667C13.0667 10.8 13.6 10.2667 14.2667 10.2667H19.2C20 10.2667 20.5333 9.73332 20.5333 8.93332C20.5333 8.13332 20 7.59998 19.2 7.59998H17.3333V6.39998C17.3333 5.59998 16.8 5.06665 16 5.06665C15.2 5.06665 14.6667 5.59998 14.6667 6.39998V7.59998H14.2667C12.1333 7.59998 10.4 9.33332 10.4 11.4667C10.4 13.6 12.1333 15.3333 14.2667 15.3333H17.6C18.2667 15.3333 18.8 15.8666 18.8 16.5333C18.8 17.2 18.2667 17.7333 17.6 17.7333H12.6667C11.8667 17.7333 11.3333 18.2667 11.3333 19.0667C11.3333 19.8667 11.8667 20.4 12.6667 20.4H14.6667V21.6C14.6667 22.4 15.2 22.9333 16 22.9333C16.8 22.9333 17.3333 22.4 17.3333 21.6V20.4H17.7333C19.8667 20.4 21.6 18.6667 21.6 16.5333C21.6 14.4 19.8667 12.6667 17.7333 12.6667Z" fill="#FD9222"/>
</g>
<defs>
<filter id="filter0_d_359_3" x="-1.33333" y="0.666626" width="34.6667" height="34.6666" filterUnits="userSpaceOnUse" color-interpolation-filters="sRGB">
<feFlood flood-opacity="0" result="BackgroundImageFix"/>
<feColorMatrix in="SourceAlpha" type="matrix" values="0 0 0 0 0 0 0 0 0 0 0 0 0 0 0 0 0 0 127 0" result="hardAlpha"/>
<feOffset dy="4"/>
<feGaussianBlur stdDeviation="2"/>
<feComposite in2="hardAlpha" operator="out"/>
<feColorMatrix type="matrix" values="0 0 0 0 0 0 0 0 0 0 0 0 0 0 0 0 0 0 0.25 0"/>
<feBlend mode="normal" in2="BackgroundImageFix" result="effect1_dropShadow_359_3"/>
<feBlend mode="normal" in="SourceGraphic" in2="effect1_dropShadow_359_3" result="shape"/>
</filter>
</defs>
</svg>
