<svg xmlns="http://www.w3.org/2000/svg" aria-hidden="true" style="position:absolute;width:0;height:0;overflow:hidden">
  <defs>
    <symbol id="icon-instagram" viewBox="0 0 32 32">
      <path d="M31.969 9.408c-.075-1.7-.35-2.869-.744-3.882a7.803 7.803 0 0 0-1.85-2.838A7.867 7.867 0 0 0 26.543.844C25.524.45 24.361.175 22.661.1 20.948.019 20.404 0 16.06 0s-4.888.019-6.595.094c-1.7.075-2.869.35-3.882.744a7.803 7.803 0 0 0-2.838 1.85A7.867 7.867 0 0 0 .901 5.52C.507 6.539.232 7.702.157 9.402c-.081 1.713-.1 2.257-.1 6.601s.019 4.888.094 6.595c.075 1.7.35 2.869.744 3.882a7.895 7.895 0 0 0 1.85 2.838 7.867 7.867 0 0 0 2.832 1.844c1.019.394 2.182.669 3.882.744 1.706.075 2.25.094 6.595.094s4.888-.019 6.595-.094c1.7-.075 2.869-.35 3.882-.744a8.181 8.181 0 0 0 4.682-4.682c.394-1.019.669-2.182.744-3.882.075-1.707.094-2.25.094-6.595s-.006-4.888-.081-6.595zm-2.882 13.065c-.069 1.563-.331 2.407-.55 2.969a5.31 5.31 0 0 1-3.038 3.038c-.563.219-1.413.481-2.969.55-1.688.075-2.194.094-6.464.094s-4.782-.019-6.464-.094c-1.563-.069-2.407-.331-2.969-.55a4.926 4.926 0 0 1-1.838-1.194 4.974 4.974 0 0 1-1.194-1.838c-.219-.563-.481-1.413-.55-2.969-.075-1.688-.094-2.194-.094-6.464s.019-4.782.094-6.464c.069-1.563.331-2.407.55-2.969a4.868 4.868 0 0 1 1.2-1.838A4.974 4.974 0 0 1 6.639 3.55c.563-.219 1.413-.481 2.969-.55 1.688-.075 2.194-.094 6.464-.094 4.276 0 4.782.019 6.464.094 1.563.069 2.407.331 2.969.55a4.914 4.914 0 0 1 1.838 1.194 4.974 4.974 0 0 1 1.194 1.838c.219.563.481 1.413.55 2.969.075 1.688.094 2.194.094 6.464s-.019 4.77-.094 6.458z"/>
      <path d="M16.059 7.783c-4.538 0-8.22 3.682-8.22 8.22s3.682 8.22 8.22 8.22 8.22-3.682 8.22-8.22-3.682-8.22-8.22-8.22zm0 13.552a5.333 5.333 0 0 1 0-10.664 5.333 5.333 0 0 1 0 10.664zM26.524 7.458a1.919 1.919 0 1 1-3.838 0 1.919 1.919 0 0 1 3.838 0z"/>
    </symbol>
    <symbol id="icon-twitter" viewBox="0 0 32 32">
      <path d="M32 6.078c-1.19.522-2.458.868-3.78 1.036a6.523 6.523 0 0 0 2.886-3.626 13.11 13.11 0 0 1-4.16 1.588A6.574 6.574 0 0 0 22.154 3c-3.632 0-6.556 2.948-6.556 6.562 0 .52.044 1.02.152 1.496-5.454-.266-10.28-2.88-13.522-6.862a6.605 6.605 0 0 0-.898 3.316 6.57 6.57 0 0 0 2.914 5.452 6.479 6.479 0 0 1-2.964-.808v.072c0 3.188 2.274 5.836 5.256 6.446a6.548 6.548 0 0 1-1.72.216 5.8 5.8 0 0 1-1.242-.112c.85 2.598 3.262 4.508 6.13 4.57a13.182 13.182 0 0 1-8.134 2.798c-.538 0-1.054-.024-1.57-.09A18.469 18.469 0 0 0 10.064 29c12.072 0 18.672-10 18.672-18.668 0-.29-.01-.57-.024-.848A13.087 13.087 0 0 0 32 6.078z"/>
    </symbol>
    <symbol id="icon-angle" viewBox="0 0 32 32">
<path d="M16.947 17.867c-0.124 0.125-0.271 0.224-0.434 0.292s-0.337 0.103-0.513 0.103-0.35-0.035-0.513-0.103c-0.162-0.068-0.31-0.167-0.434-0.292l-6.107-6.12c-0.124-0.125-0.271-0.224-0.434-0.292s-0.337-0.103-0.513-0.103c-0.176 0-0.35 0.035-0.513 0.103s-0.31 0.167-0.434 0.292c-0.248 0.25-0.388 0.588-0.388 0.94s0.139 0.69 0.388 0.94l6.12 6.12c0.75 0.749 1.767 1.17 2.827 1.17s2.077-0.421 2.827-1.17l6.12-6.12c0.246-0.248 0.385-0.584 0.387-0.933 0.001-0.175-0.033-0.349-0.099-0.512s-0.164-0.31-0.288-0.435c-0.124-0.125-0.271-0.224-0.434-0.292s-0.337-0.103-0.513-0.103-0.35 0.035-0.513 0.103c-0.162 0.068-0.31 0.167-0.434 0.292l-6.107 6.12z"></path>
</symbol>
<symbol id="icon-chocolate-bar" viewBox="0 0 30 32">
<path fill="#000" style="fill: var(--color1, #000)" d="M12.982 1.98l6.176 6.183 0.066-0.066c0.129-0.127 0.303-0.198 0.484-0.2s0.356 0.066 0.488 0.19l0.716 0.716c0.25 0.25 0.258 0.632 0.068 0.898l-0.003 0.006-0.117 0.158 5.054 5.054c0.451 0.451 0.451 1.173 0 1.625l-7.737 7.737c-0.451 0.451-1.173 0.451-1.625 0l-3.649-3.649c-0.061 0.076-0.137 0.139-0.223 0.184s-0.182 0.071-0.279 0.076c-0.097 0.006-0.195-0.010-0.286-0.044s-0.174-0.089-0.243-0.158l-2.133-2.133c-0.127-0.129-0.198-0.303-0.2-0.484s0.066-0.356 0.19-0.488l0.005-0.006 0.063-0.062-6.176-6.176c-0.451-0.451-0.451-1.173 0-1.625l7.737-7.737c0.451-0.451 1.173-0.451 1.625 0v0.001zM18.383 8.938l-1.441-1.44c-0.045-0.047-0.099-0.084-0.159-0.109s-0.124-0.038-0.189-0.038c-0.065 0-0.129 0.013-0.189 0.038s-0.114 0.062-0.159 0.109l-2.937 2.937c-0.047 0.046-0.083 0.101-0.109 0.162s-0.038 0.126-0.038 0.191 0.013 0.131 0.038 0.191c0.025 0.061 0.062 0.116 0.109 0.162l1.435 1.435 0.501-0.501-1.284-1.284 2.634-2.642 1.287 1.291 0.503-0.503zM14.218 13.1l-1.439-1.439c-0.045-0.047-0.099-0.084-0.159-0.109s-0.124-0.038-0.189-0.038c-0.065 0-0.129 0.013-0.189 0.038s-0.114 0.063-0.159 0.109l-2.946 2.946c-0.197 0.189-0.197 0.501 0 0.697l1.438 1.438 0.505-0.505-1.288-1.283 2.642-2.634 1.283 1.282 0.502-0.501zM8.88 6.722l2.937 2.937c0.197 0.197 0.509 0.197 0.697-0.008l2.937-2.937c0.047-0.044 0.084-0.098 0.109-0.157s0.038-0.123 0.038-0.187h0.008c0-0.123-0.049-0.254-0.148-0.353l-2.937-2.937c-0.046-0.047-0.101-0.084-0.162-0.109s-0.126-0.038-0.191-0.038c-0.066 0-0.131 0.013-0.191 0.038s-0.115 0.062-0.162 0.109l-2.937 2.946c-0.197 0.189-0.197 0.5 0 0.697zM4.72 10.882l2.937 2.937c0.197 0.197 0.509 0.197 0.697 0l2.937-2.937c0.048-0.045 0.085-0.1 0.111-0.161s0.038-0.126 0.037-0.192h0.008c0-0.131-0.049-0.254-0.148-0.353l-2.937-2.937c-0.045-0.047-0.099-0.084-0.159-0.109s-0.124-0.038-0.189-0.038-0.129 0.013-0.189 0.038c-0.060 0.025-0.114 0.062-0.159 0.109l-2.946 2.946c-0.197 0.189-0.197 0.501 0 0.697zM10.408 18.065l1.938 1.939 7.906-10.7-0.537-0.537-9.307 9.298z"></path>
<path fill="#fd9222" style="fill: var(--color2, #fd9222)" d="M12.982 1.98l6.176 6.183 0.066-0.066c0.129-0.127 0.303-0.198 0.484-0.2s0.356 0.066 0.488 0.19l0.716 0.716c0.25 0.25 0.258 0.632 0.068 0.898l-0.003 0.006-0.117 0.158 5.054 5.054c0.451 0.451 0.451 1.173 0 1.625l-7.737 7.737c-0.451 0.451-1.173 0.451-1.625 0l-3.649-3.649c-0.061 0.076-0.137 0.139-0.223 0.184s-0.182 0.071-0.279 0.076c-0.097 0.006-0.195-0.010-0.286-0.044s-0.174-0.089-0.243-0.158l-2.133-2.133c-0.127-0.129-0.198-0.303-0.2-0.484s0.066-0.356 0.19-0.488l0.005-0.006 0.063-0.062-6.176-6.176c-0.451-0.451-0.451-1.173 0-1.625l7.737-7.737c0.451-0.451 1.173-0.451 1.625 0v0.001zM18.383 8.938l-1.441-1.44c-0.045-0.047-0.099-0.084-0.159-0.109s-0.124-0.038-0.189-0.038c-0.065 0-0.129 0.013-0.189 0.038s-0.114 0.062-0.159 0.109l-2.937 2.937c-0.047 0.046-0.083 0.101-0.109 0.162s-0.038 0.126-0.038 0.191 0.013 0.131 0.038 0.191c0.025 0.061 0.062 0.116 0.109 0.162l1.435 1.435 0.501-0.501-1.284-1.284 2.634-2.642 1.287 1.291 0.503-0.503zM14.218 13.1l-1.439-1.439c-0.045-0.047-0.099-0.084-0.159-0.109s-0.124-0.038-0.189-0.038c-0.065 0-0.129 0.013-0.189 0.038s-0.114 0.063-0.159 0.109l-2.946 2.946c-0.197 0.189-0.197 0.501 0 0.697l1.438 1.438 0.505-0.505-1.288-1.283 2.642-2.634 1.283 1.282 0.502-0.501zM8.88 6.722l2.937 2.937c0.197 0.197 0.509 0.197 0.697-0.008l2.937-2.937c0.047-0.044 0.084-0.098 0.109-0.157s0.038-0.123 0.038-0.187h0.008c0-0.123-0.049-0.254-0.148-0.353l-2.937-2.937c-0.046-0.047-0.101-0.084-0.162-0.109s-0.126-0.038-0.191-0.038c-0.066 0-0.131 0.013-0.191 0.038s-0.115 0.062-0.162 0.109l-2.937 2.946c-0.197 0.189-0.197 0.5 0 0.697zM4.72 10.882l2.937 2.937c0.197 0.197 0.509 0.197 0.697 0l2.937-2.937c0.048-0.045 0.085-0.1 0.111-0.161s0.038-0.126 0.037-0.192h0.008c0-0.131-0.049-0.254-0.148-0.353l-2.937-2.937c-0.045-0.047-0.099-0.084-0.159-0.109s-0.124-0.038-0.189-0.038-0.129 0.013-0.189 0.038c-0.060 0.025-0.114 0.062-0.159 0.109l-2.946 2.946c-0.197 0.189-0.197 0.501 0 0.697zM10.408 18.065l1.938 1.939 7.906-10.7-0.537-0.537-9.307 9.298z"></path>
<path fill="none" stroke="#000" stroke-width="0.8205" stroke-miterlimit="4" stroke-linecap="butt" stroke-linejoin="miter" style="stroke: var(--color1, #000)" d="M19.448 8.453l0.063-0.063c0-0 0.001-0.001 0.001-0.001 0.003-0.003 0.006-0.006 0.010-0.009l-0.849 0.847 0.29-0.29-1.729-1.728c-0.083-0.085-0.182-0.152-0.291-0.199-0.111-0.047-0.229-0.071-0.349-0.071s-0.239 0.024-0.349 0.071c-0.109 0.046-0.209 0.114-0.291 0.199l-2.935 2.935c-0 0-0 0-0.001 0.001-0.085 0.084-0.152 0.184-0.198 0.295s-0.070 0.229-0.070 0.349 0.024 0.238 0.070 0.349c0.010 0.025 0.021 0.049 0.034 0.072-0.024-0.013-0.049-0.025-0.074-0.036-0.111-0.047-0.229-0.071-0.349-0.071s-0.239 0.024-0.349 0.071c-0.109 0.046-0.209 0.114-0.292 0.199l-2.941 2.941c-0.365 0.354-0.355 0.928-0.003 1.28l1.727 1.727-0.197 0.196-6.466-6.466c-0.291-0.291-0.291-0.753 0-1.044l7.737-7.737c0.284-0.284 0.731-0.291 1.023-0.020l6.487 6.495 0.29-0.29zM20.583 9.548l0.051-0.069-0.001 0.002-0.057 0.077 0.007-0.010zM11.643 19.881l-1.611-1.611c-0-0-0.001-0.001-0.001-0.001-0.003-0.003-0.006-0.006-0.009-0.009l1.621 1.622zM10.068 17.825l-0.041 0.041c0-0 0.001-0 0.001-0.001l0.005-0.006 0.035-0.035zM12.581 20.377c-0.001 0.001-0.002 0.002-0.003 0.003l7.741-10.475 5.304 5.304c0.291 0.291 0.291 0.753 0 1.044l-7.737 7.737c-0.291 0.291-0.753 0.291-1.044 0l-3.974-3.974-0.286 0.361zM17.879 10.021l-2.057 2.054-1.284-1.284 2.054-2.061 1.287 1.291zM11.368 15.945l-0.997-0.993 2.061-2.054 1.283 1.283-2.056 2.054-0.291-0.29zM8.592 5.733c-0.292 0.283-0.344 0.707-0.172 1.046-0.019-0.009-0.037-0.018-0.056-0.026-0.111-0.047-0.229-0.071-0.349-0.071s-0.239 0.024-0.349 0.071c-0.109 0.046-0.208 0.114-0.291 0.199l-2.941 2.941c-0.365 0.354-0.355 0.928-0.003 1.28l2.937 2.937c0.352 0.352 0.926 0.363 1.28-0.003l2.932-2.932c0.071-0.068 0.13-0.148 0.174-0.236h0.105v-0.41c0-0.144-0.033-0.284-0.098-0.41 0.34 0.172 0.766 0.119 1.050-0.183l2.929-2.929c0.069-0.066 0.126-0.143 0.17-0.227h0.109v-0.41c0-0.228-0.090-0.465-0.268-0.643l-2.936-2.936c-0-0-0.001-0.001-0.001-0.001-0.084-0.085-0.184-0.152-0.294-0.198s-0.229-0.070-0.349-0.070-0.239 0.024-0.349 0.070c-0.11 0.046-0.21 0.113-0.295 0.198-0 0-0 0-0.001 0.001l-2.934 2.942z"></path>
</symbol>
<symbol id="icon-coin" viewBox="0 0 34 32">
<path fill="#fd9222" style="fill: var(--color2, #fd9222)" d="M17.067 0.711c-7.822 0-14.222 6.4-14.222 14.222s6.4 14.222 14.222 14.222c7.822 0 14.222-6.4 14.222-14.222s-6.4-14.222-14.222-14.222zM17.067 26.311c-6.258 0-11.378-5.12-11.378-11.378s5.12-11.378 11.378-11.378 11.378 5.12 11.378 11.378c0 6.258-5.12 11.378-11.378 11.378z"></path>
<path fill="#fd9222" style="fill: var(--color2, #fd9222)" d="M18.916 13.511h-3.698c-0.711 0-1.28-0.569-1.28-1.28s0.569-1.28 1.28-1.28h5.262c0.853 0 1.422-0.569 1.422-1.422s-0.569-1.422-1.422-1.422h-1.991v-1.28c0-0.853-0.569-1.422-1.422-1.422s-1.422 0.569-1.422 1.422v1.28h-0.427c-2.276 0-4.124 1.849-4.124 4.124s1.849 4.124 4.124 4.124h3.556c0.711 0 1.28 0.569 1.28 1.28s-0.569 1.28-1.28 1.28h-5.262c-0.853 0-1.422 0.569-1.422 1.422s0.569 1.422 1.422 1.422h2.133v1.28c0 0.853 0.569 1.422 1.422 1.422s1.422-0.569 1.422-1.422v-1.28h0.427c2.276 0 4.124-1.849 4.124-4.124s-1.849-4.124-4.124-4.124z"></path>
</symbol>
<symbol id="icon-spoon" viewBox="0 0 30 32">
<path fill="#fd9222" style="fill: var(--color2, #fd9222)" d="M14.696 11.879c-0.659-0.8-0.991-1.782-0.991-2.764 0-3.641 4.363-7.278 8.726-7.278 2.409 0 4.363 1.955 4.363 4.364 0 4.364-3.636 8.728-7.281 8.728-0.982 0-1.963-0.332-2.763-0.991l-10.744 10.746c-0.568 0.568-1.491 0.568-2.059 0s-0.568-1.491 0-2.059l10.748-10.746z"></path>
</symbol>
  </defs>
</svg>
